<svg xmlns="http://www.w3.org/2000/svg" viewBox="0 0 600 200" preserveAspectRatio="none"><defs><linearGradient id="silver" x1="0" y1="0" x2="1" y2="1"><stop stop-color="#f6f7fd"/><stop offset=".4" stop-color="#d7dce8"/><stop offset=".7" stop-color="#f4f5fa"/><stop offset="1" stop-color="#b6c0d4"/></linearGradient><filter id="grain"><feTurbulence type="fractalNoise" baseFrequency=".72" numOctaves="3" stitchTiles="stitch"/><feColorMatrix type="saturate" values="0"/><feComponentTransfer><feFuncA type="linear" slope=".27"/></feComponentTransfer><feBlend in="SourceGraphic" mode="multiply"/></filter><clipPath id="edge"><path d="M0 0h600v161l-14 2-11-6-20 3-11 9-17-2-18 9-18-3-12 8-17-5-20 8-20-5-20 3-19-9-20 4-19-8-21 5-18-5-24 3-17-6-22 7-20-2-17 10-19-4-18 6-21-5-19 3-17-6-15 1-16-8-17 2-21-11-17 2-15-9-20 2V0Z"/></clipPath></defs><g clip-path="url(#edge)"><rect width="600" height="200" fill="url(#silver)" filter="url(#grain)"/></g></svg>
